<?xml version="1.0" encoding="utf-8"?>
<!-- Generator: Adobe Illustrator 19.2.1, SVG Export Plug-In . SVG Version: 6.00 Build 0)  -->
<svg version="1.1" id="Layer_1" xmlns="http://www.w3.org/2000/svg" xmlns:xlink="http://www.w3.org/1999/xlink" x="0px" y="0px"
	 viewBox="0 0 283.2 64.5" style="enable-background:new 0 0 283.2 64.5;" xml:space="preserve">
<style type="text/css">
	.st0{fill:#FFFFFF;}
	.st1{fill:#628BC8;}
	.st2{fill:none;}
	.st3{fill:#4C7BBC;}
	.st4{fill:#3B64AC;}
	.st5{fill:#1E447D;}
	.st6{fill:#9BBFE2;}
</style>
<g>
	<path class="st0" d="M155.5,52.3l10.2-42.2H177l10.3,42.2h-9.1L176,41.7h-9.7l-2.2,10.6C164.1,52.3,155.5,52.3,155.5,52.3z
		 M167.6,35.3h7.2l-3.6-17.7L167.6,35.3z"/>
	<path class="st0" d="M188.6,41.7h7.1v0.9c0,1.8,0.3,3.1,0.9,3.9c0.6,0.8,1.6,1.2,3,1.2c1.1,0,2-0.3,2.6-0.8s0.9-1.3,0.9-2.3
		c0-1.2-1.3-2.6-3.8-4.2c-0.6-0.4-1.1-0.7-1.5-0.9l-0.4-0.2c-5.8-3.7-8.7-7.3-8.7-10.9c0-2.8,0.9-5,2.8-6.4c1.9-1.5,4.6-2.2,8.2-2.2
		c3.4,0,6,0.8,7.8,2.5c1.7,1.6,2.6,4.1,2.6,7.4v0.7h-6.9v-0.7c0-1.5-0.3-2.7-0.9-3.4s-1.6-1.1-3-1.1c-1,0-1.8,0.3-2.4,0.8
		c-0.6,0.5-0.9,1.2-0.9,2s0.3,1.5,0.8,2.1s1.7,1.5,3.5,2.6c0.4,0.3,1,0.6,1.8,1.1c5.7,3.5,8.6,7,8.6,10.6c0,2.8-1,5-2.9,6.5
		s-4.7,2.3-8.2,2.3c-3.7,0-6.5-0.8-8.3-2.5c-1.8-1.6-2.7-4.2-2.7-7.7c0-0.1,0-0.3,0-0.6C188.6,42.1,188.6,41.9,188.6,41.7z"/>
	<path class="st0" d="M223.1,40.6v2.1c0,1.7,0.2,2.8,0.5,3.2c0.3,0.5,1,0.7,1.9,0.7c0.2,0,0.4,0,0.5,0s0.2,0,0.3,0v5.7
		c-1.1,0.1-2,0.2-2.7,0.2c-0.6,0-1.2,0.1-1.5,0.1c-2.6,0-4.5-0.5-5.5-1.5s-1.5-3-1.5-6V26H212v-5.5h3.1v-8.6h7.9v8.7h3.3V26H223
		v14.6H223.1z"/>
	<path class="st0" d="M228.7,36.4c0-6.4,0.9-10.8,2.6-13.2s4.9-3.6,9.3-3.6c4.5,0,7.6,1.2,9.4,3.6c1.8,2.4,2.6,6.8,2.6,13.2
		s-0.9,10.8-2.6,13.2c-1.8,2.4-4.9,3.6-9.4,3.6s-7.6-1.2-9.3-3.6C229.6,47.2,228.7,42.8,228.7,36.4z M236.7,36.1v0.7
		c0,4.9,0.3,7.9,0.8,9c0.5,1.1,1.5,1.6,3.1,1.6s2.6-0.5,3.2-1.5c0.5-1,0.8-3.7,0.8-8v-1.3v-1.8c0-4.2-0.3-6.8-0.8-7.8
		c-0.6-1.1-1.6-1.6-3.1-1.6s-2.5,0.5-3.1,1.5s-0.8,3.3-0.8,7.1L236.7,36.1L236.7,36.1z"/>
	<path class="st0" d="M257,52.3V20.6h7.7v3.2c0.8-1.3,1.8-2.3,3-3c1.2-0.7,2.6-1,4.1-1c2.5,0,4.4,0.7,5.7,2s2,3.2,2,5.7v24.9h-7.6
		V31c0-1.9-0.3-3.2-0.8-3.9s-1.4-1.1-2.6-1.1c-1.3,0-2.3,0.5-2.8,1.4c-0.6,0.9-0.9,2.5-0.9,4.7v20.2H257z"/>
</g>
<g>
	<path class="st1" d="M70.7,31.2c0-4.5,0.2-8.1,0.7-10.7c0.5-2.7,1.2-4.7,2.1-6c1.3-1.9,2.9-3.3,4.7-4.1C80,9.6,82.4,9,85.4,9
		s5.4,0.4,7.2,1.2s3.4,2.2,4.7,4.1c1,1.4,1.7,3.4,2.1,6.1s0.7,6.2,0.7,10.7c0,4.4-0.2,8-0.7,10.7s-1.1,4.7-2.1,6.1
		c-1.3,1.9-2.9,3.3-4.7,4.1c-1.8,0.8-4.2,1.2-7.2,1.2S80,52.8,78.2,52s-3.4-2.2-4.7-4.1c-1-1.4-1.7-3.4-2.1-6
		C70.9,39.2,70.7,35.6,70.7,31.2z M79.3,31.2c0,6.9,0.4,11.3,1.3,13.1c0.9,1.8,2.5,2.7,4.8,2.7s3.9-0.9,4.7-2.6
		c0.9-1.8,1.3-6.2,1.3-13.2S91,19.8,90.1,18s-2.5-2.7-4.8-2.7s-3.9,0.9-4.8,2.7S79.3,24.1,79.3,31.2z"/>
	<path class="st1" d="M104.3,52.3V20.6h7.7v3.2c0.8-1.3,1.8-2.3,3-3c1.2-0.7,2.6-1,4.1-1c2.5,0,4.4,0.7,5.7,2s2,3.2,2,5.7v24.9h-7.6
		V31c0-1.9-0.3-3.2-0.8-3.9S117,26,115.8,26c-1.3,0-2.3,0.5-2.8,1.4c-0.6,0.9-0.9,2.5-0.9,4.7v20.2H104.3z"/>
	<path class="st1" d="M146.3,41.4h7.4c0,0.1,0,0.4,0,0.6c0,0.3,0,0.5,0,0.6c0,3.6-0.9,6.3-2.8,8c-1.9,1.7-4.8,2.5-8.8,2.5
		c-2.1,0-3.9-0.2-5.3-0.7c-1.4-0.5-2.6-1.3-3.5-2.3c-1.1-1.2-1.9-2.8-2.3-4.6c-0.5-1.9-0.7-5.2-0.7-10.1c0-3.9,0.2-6.6,0.6-8.3
		c0.4-1.7,1.1-3,2-4.1c1-1.1,2.3-1.9,3.8-2.5c1.6-0.6,3.5-0.8,5.6-0.8s3.9,0.3,5.4,0.9c1.5,0.6,2.8,1.5,3.8,2.7
		c0.8,1.1,1.4,2.4,1.8,4c0.4,1.6,0.5,4.2,0.5,7.7v2.4h-15.5c0,0.2-0.1,0.5-0.1,0.8s0,0.7,0,1.3c0,3,0.3,5.1,0.9,6.3
		c0.6,1.2,1.6,1.8,3,1.8s2.4-0.5,3-1.5C146,45.2,146.3,43.6,146.3,41.4z M138.4,32.4h7.6v-1.3c0-2.2-0.3-3.7-0.9-4.5s-1.6-1.2-3-1.2
		s-2.4,0.4-3,1.3s-0.9,2.3-0.9,4.5C138.4,31.7,138.4,32.1,138.4,32.4z"/>
</g>
<g>
	<polygon class="st2" points="33.1,16.1 19.1,40 46.8,40 	"/>
	<polygon class="st3" points="33.1,16.1 19.1,8 19.1,23.9 	"/>
	<path class="st1" d="M33.1,4.2C33.1,4.2,33,4.2,33.1,4.2c-4.7,0-8.9,1.1-12.7,3.1L19.1,8l14,8.1V4.2z"/>
	<path class="st4" d="M46.8,8l-1.3-0.7c-3.7-2-8-3.1-12.5-3.1v11.9L46.8,8z"/>
	<polygon class="st5" points="46.8,23.9 46.8,8 33.1,16.1 	"/>
	<path class="st4" d="M56.9,18.3c-2.2-4-5.4-7.4-9.2-9.8L46.8,8v16L56.9,18.3z"/>
	<path class="st1" d="M60.4,31.8c0-4.9-1.3-9.5-3.5-13.5L46.8,24L60.4,31.8z"/>
	<path class="st4" d="M60.4,31.8l-13.6-7.8v16l13.6-8V31.8L60.4,31.8z"/>
	<path class="st6" d="M56.8,45.5c2.2-4,3.5-8.7,3.5-13.6l-13.6,8L56.8,45.5z"/>
	<path class="st1" d="M46.8,55.8l0.9-0.6c3.7-2.4,6.9-5.8,9.1-9.7l-10-5.6L46.8,55.8L46.8,55.8z"/>
	<polygon class="st3" points="33.1,47.7 46.8,55.8 46.8,40 	"/>
	<path class="st1" d="M33.1,59.6c4.5,0,8.7-1.1,12.4-3l1.4-0.7l-13.8-8.1V59.6z"/>
	<path class="st4" d="M19.1,55.8l1.4,0.7c3.7,2,8,3.1,12.5,3.1h0.1V47.7L19.1,55.8z"/>
	<polygon class="st5" points="19.1,40 19.1,55.8 33.1,47.7 	"/>
	<path class="st4" d="M9.1,45.6c2.2,3.9,5.4,7.3,9.2,9.7l0.7,0.5V40L9.1,45.6z"/>
	<path class="st1" d="M5.5,31.9L5.5,31.9c0,5,1.3,9.7,3.6,13.8l10-5.7L5.5,31.9z"/>
	<polygon class="st4" points="5.5,31.9 5.5,31.9 19.1,40 19.1,23.9 	"/>
	<path class="st6" d="M9.1,18.2c-2.3,4-3.6,8.8-3.6,13.7l13.6-7.9L9.1,18.2z"/>
	<path class="st1" d="M19.1,8l-0.7,0.4c-3.9,2.4-7.1,5.8-9.3,9.8l10,5.8V8z"/>
	<polygon class="st1" points="19.1,23.9 19.1,40 33.1,16.1 	"/>
	<polygon class="st1" points="46.8,40 19.1,40 33.1,47.7 	"/>
	<polygon class="st1" points="46.8,40 46.8,23.9 33.1,16.1 	"/>
</g>
</svg>
