<?xml version="1.0" encoding="utf-8"?>
<!-- Generator: Adobe Illustrator 19.2.1, SVG Export Plug-In . SVG Version: 6.00 Build 0)  -->
<svg version="1.1" id="Layer_1" xmlns="http://www.w3.org/2000/svg" xmlns:xlink="http://www.w3.org/1999/xlink" x="0px" y="0px"
	 viewBox="0 0 283.2 64.5" style="enable-background:new 0 0 283.2 64.5;" xml:space="preserve">
<style type="text/css">
	.st0{fill:#171717;}
	.st1{fill:#2B57A3;}
	.st2{fill:none;}
	.st3{fill:#4C7BBC;}
	.st4{fill:#628BC8;}
	.st5{fill:#3B64AC;}
	.st6{fill:#1E447D;}
	.st7{fill:#9BBFE2;}
</style>
<g>
	<path class="st0" d="M156.5,52.3l10.2-42.2H178l10.3,42.2h-9.1L177,41.7h-9.7l-2.2,10.6C165.1,52.3,156.5,52.3,156.5,52.3z
		 M168.6,35.3h7.2l-3.6-17.7L168.6,35.3z"/>
	<path class="st0" d="M189.6,41.7h7.1v0.9c0,1.8,0.3,3.1,0.9,3.9c0.6,0.8,1.6,1.2,3,1.2c1.1,0,2-0.3,2.6-0.8s0.9-1.3,0.9-2.3
		c0-1.2-1.3-2.6-3.8-4.2c-0.6-0.4-1.1-0.7-1.5-0.9l-0.4-0.2c-5.8-3.7-8.7-7.3-8.7-10.9c0-2.8,0.9-5,2.8-6.4c1.9-1.5,4.6-2.2,8.2-2.2
		c3.4,0,6,0.8,7.8,2.5c1.7,1.6,2.6,4.1,2.6,7.4v0.7h-6.9v-0.7c0-1.5-0.3-2.7-0.9-3.4s-1.6-1.1-3-1.1c-1,0-1.8,0.3-2.4,0.8
		c-0.6,0.5-0.9,1.2-0.9,2s0.3,1.5,0.8,2.1s1.7,1.5,3.5,2.6c0.4,0.3,1,0.6,1.8,1.1c5.7,3.5,8.6,7,8.6,10.6c0,2.8-1,5-2.9,6.5
		s-4.7,2.3-8.2,2.3c-3.7,0-6.5-0.8-8.3-2.5c-1.8-1.6-2.7-4.2-2.7-7.7c0-0.1,0-0.3,0-0.6C189.6,42.1,189.6,41.9,189.6,41.7z"/>
	<path class="st0" d="M224.1,40.6v2.1c0,1.7,0.2,2.8,0.5,3.2c0.3,0.5,1,0.7,1.9,0.7c0.2,0,0.4,0,0.5,0s0.2,0,0.3,0v5.7
		c-1.1,0.1-2,0.2-2.7,0.2c-0.6,0-1.2,0.1-1.5,0.1c-2.6,0-4.5-0.5-5.5-1.5s-1.5-3-1.5-6V26H213v-5.5h3.1v-8.6h7.9v8.7h3.3V26H224
		v14.6H224.1z"/>
	<path class="st0" d="M229.7,36.4c0-6.4,0.9-10.8,2.6-13.2s4.9-3.6,9.3-3.6c4.5,0,7.6,1.2,9.4,3.6c1.8,2.4,2.6,6.8,2.6,13.2
		s-0.9,10.8-2.6,13.2c-1.8,2.4-4.9,3.6-9.4,3.6s-7.6-1.2-9.3-3.6C230.6,47.2,229.7,42.8,229.7,36.4z M237.7,36.1v0.7
		c0,4.9,0.3,7.9,0.8,9c0.5,1.1,1.5,1.6,3.1,1.6s2.6-0.5,3.2-1.5c0.5-1,0.8-3.7,0.8-8v-1.3v-1.8c0-4.2-0.3-6.8-0.8-7.8
		c-0.6-1.1-1.6-1.6-3.1-1.6s-2.5,0.5-3.1,1.5s-0.8,3.3-0.8,7.1L237.7,36.1L237.7,36.1z"/>
	<path class="st0" d="M258,52.3V20.6h7.7v3.2c0.8-1.3,1.8-2.3,3-3c1.2-0.7,2.6-1,4.1-1c2.5,0,4.4,0.7,5.7,2s2,3.2,2,5.7v24.9h-7.6
		V31c0-1.9-0.3-3.2-0.8-3.9s-1.4-1.1-2.6-1.1c-1.3,0-2.3,0.5-2.8,1.4c-0.6,0.9-0.9,2.5-0.9,4.7v20.2H258z"/>
</g>
<g>
	<path class="st1" d="M71.7,31.2c0-4.5,0.2-8.1,0.7-10.7c0.5-2.7,1.2-4.7,2.1-6c1.3-1.9,2.9-3.3,4.7-4.1C81,9.6,83.4,9,86.4,9
		s5.4,0.4,7.2,1.2s3.4,2.2,4.7,4.1c1,1.4,1.7,3.4,2.1,6.1s0.7,6.2,0.7,10.7c0,4.4-0.2,8-0.7,10.7s-1.1,4.7-2.1,6.1
		c-1.3,1.9-2.9,3.3-4.7,4.1c-1.8,0.8-4.2,1.2-7.2,1.2S81,52.8,79.2,52c-1.8-0.8-3.4-2.2-4.7-4.1c-1-1.4-1.7-3.4-2.1-6
		C71.9,39.2,71.7,35.6,71.7,31.2z M80.3,31.2c0,6.9,0.4,11.3,1.3,13.1c0.9,1.8,2.5,2.7,4.8,2.7s3.9-0.9,4.7-2.6
		c0.9-1.8,1.3-6.2,1.3-13.2S92,19.8,91.1,18c-0.9-1.8-2.5-2.7-4.8-2.7s-3.9,0.9-4.8,2.7C80.6,19.8,80.3,24.1,80.3,31.2z"/>
	<path class="st1" d="M105.3,52.3V20.6h7.7v3.2c0.8-1.3,1.8-2.3,3-3c1.2-0.7,2.6-1,4.1-1c2.5,0,4.4,0.7,5.7,2s2,3.2,2,5.7v24.9h-7.6
		V31c0-1.9-0.3-3.2-0.8-3.9S118,26,116.8,26c-1.3,0-2.3,0.5-2.8,1.4c-0.6,0.9-0.9,2.5-0.9,4.7v20.2H105.3z"/>
	<path class="st1" d="M147.3,41.4h7.4c0,0.1,0,0.4,0,0.6c0,0.3,0,0.5,0,0.6c0,3.6-0.9,6.3-2.8,8c-1.9,1.7-4.8,2.5-8.8,2.5
		c-2.1,0-3.9-0.2-5.3-0.7c-1.4-0.5-2.6-1.3-3.5-2.3c-1.1-1.2-1.9-2.8-2.3-4.6c-0.5-1.9-0.7-5.2-0.7-10.1c0-3.9,0.2-6.6,0.6-8.3
		c0.4-1.7,1.1-3,2-4.1c1-1.1,2.3-1.9,3.8-2.5c1.6-0.6,3.5-0.8,5.6-0.8s3.9,0.3,5.4,0.9c1.5,0.6,2.8,1.5,3.8,2.7
		c0.8,1.1,1.4,2.4,1.8,4c0.4,1.6,0.5,4.2,0.5,7.7v2.4h-15.5c0,0.2-0.1,0.5-0.1,0.8s0,0.7,0,1.3c0,3,0.3,5.1,0.9,6.3
		c0.6,1.2,1.6,1.8,3,1.8s2.4-0.5,3-1.5C147,45.2,147.3,43.6,147.3,41.4z M139.4,32.4h7.6v-1.3c0-2.2-0.3-3.7-0.9-4.5s-1.6-1.2-3-1.2
		s-2.4,0.4-3,1.3s-0.9,2.3-0.9,4.5C139.4,31.7,139.4,32.1,139.4,32.4z"/>
</g>
<g>
	<polygon class="st2" points="31.6,14.3 17.4,38.6 45.6,38.6 	"/>
	<polygon class="st3" points="31.6,14.3 17.4,6.1 17.4,22.3 	"/>
	<path class="st4" d="M31.6,2.2C31.6,2.2,31.5,2.2,31.6,2.2c-4.7,0-9.1,1.1-12.9,3.1l-1.3,0.8l14.2,8.3V2.2z"/>
	<path class="st5" d="M45.6,6.1l-1.3-0.8c-3.8-2-8.2-3.1-12.7-3.1v12.1L45.6,6.1z"/>
	<polygon class="st6" points="45.6,22.3 45.6,6.1 31.6,14.3 	"/>
	<path class="st5" d="M55.9,16.5c-2.3-4.1-5.5-7.5-9.4-10l-0.9-0.5v16.3L55.9,16.5z"/>
	<path class="st4" d="M59.5,30.3c0-5-1.3-9.7-3.6-13.8l-10.2,5.9L59.5,30.3z"/>
	<path class="st5" d="M59.5,30.3l-13.9-8v16.3l13.9-8.2V30.3L59.5,30.3z"/>
	<path class="st7" d="M55.8,44.3c2.3-4.1,3.6-8.8,3.6-13.9l-13.9,8.2L55.8,44.3z"/>
	<path class="st4" d="M45.6,54.8l0.9-0.6c3.8-2.5,7-5.9,9.3-9.9l-10.2-5.7L45.6,54.8L45.6,54.8z"/>
	<polygon class="st3" points="31.6,46.5 45.6,54.8 45.6,38.6 	"/>
	<path class="st4" d="M31.6,58.7c4.6,0,8.8-1.1,12.6-3l1.4-0.8l-14-8.3C31.6,46.6,31.6,58.7,31.6,58.7z"/>
	<path class="st5" d="M17.4,54.8l1.4,0.8c3.8,2,8.2,3.1,12.7,3.1h0.1V46.5L17.4,54.8z"/>
	<polygon class="st6" points="17.4,38.6 17.4,54.8 31.6,46.5 	"/>
	<path class="st5" d="M7.2,44.4c2.3,4,5.5,7.4,9.4,9.9l0.8,0.5V38.6L7.2,44.4z"/>
	<path class="st4" d="M3.5,30.4L3.5,30.4c0,5.1,1.3,9.9,3.7,14l10.2-5.8L3.5,30.4z"/>
	<polygon class="st5" points="3.5,30.4 3.5,30.4 17.4,38.6 17.4,22.3 	"/>
	<path class="st7" d="M7.2,16.4c-2.4,4.1-3.7,8.9-3.7,14l13.9-8.1L7.2,16.4z"/>
	<path class="st4" d="M17.4,6.1l-0.7,0.4c-4,2.5-7.2,5.9-9.5,10l10.2,5.9V6.1z"/>
	<polygon class="st4" points="17.4,22.3 17.4,38.6 31.6,14.3 	"/>
	<polygon class="st4" points="45.6,38.6 17.4,38.6 31.6,46.5 	"/>
	<polygon class="st4" points="45.6,38.6 45.6,22.3 31.6,14.3 	"/>
</g>
</svg>
